<?xml version="1.0" encoding="UTF-8" standalone="no"?>
<!DOCTYPE svg PUBLIC "-//W3C//DTD SVG 1.1//EN" "http://www.w3.org/Graphics/SVG/1.1/DTD/svg11.dtd">
<svg width="456" height="456" viewBox="0 0 456 456" version="1.1" xmlns="http://www.w3.org/2000/svg" xmlns:xlink="http://www.w3.org/1999/xlink" xml:space="preserve" xmlns:serif="http://www.serif.com/" style="fill-rule:evenodd;clip-rule:evenodd;stroke-linejoin:round;stroke-miterlimit:2;">
    <g transform="translate(0.000000,496.000000) scale(0.100000,-0.100000)" fill="#000000" stroke="none">
		<path d="M2283 4361 c-35 -15 -76 -37 -92 -49 -16 -12 -48 -26 -70 -31 -22 -5
-57 -18 -76 -30 -20 -12 -48 -21 -63 -21 -45 0 -358 -67 -388 -83 -43 -22 -81
-67 -91 -106 -5 -19 -15 -37 -23 -41 -185 -89 -367 -170 -380 -170 -5 0 2 17
16 38 35 52 185 222 207 234 21 11 103 14 133 4 14 -4 29 0 45 14 23 19 23 21
6 34 -26 20 -126 30 -173 17 -67 -19 -158 -110 -297 -300 -26 -36 -47 -70 -47
-76 0 -6 -23 -24 -50 -40 -40 -23 -57 -41 -77 -83 -14 -29 -36 -58 -49 -65
-12 -7 -65 -57 -116 -112 -51 -55 -148 -156 -216 -225 -93 -94 -131 -140 -153
-186 -16 -34 -29 -67 -29 -73 0 -6 -4 -11 -9 -11 -5 0 -8 -20 -7 -44 2 -55 25
-84 264 -324 180 -182 220 -227 209 -238 -3 -3 -44 15 -92 40 -140 74 -204 62
-290 -56 -57 -76 -79 -144 -72 -218 7 -86 48 -154 112 -187 23 -12 61 -16 165
-15 74 1 144 3 155 4 14 2 20 -2 19 -14 -1 -10 3 -18 10 -18 24 0 117 -50 111
-60 -4 -6 4 -9 19 -8 15 1 26 6 26 11 0 5 9 7 20 4 11 -3 18 -2 15 3 -6 10 46
20 99 19 38 -1 35 -2 -39 -24 -122 -37 -325 -109 -374 -135 -34 -17 -49 -20
-62 -12 -12 8 -28 8 -54 1 l-36 -10 28 -34 c55 -67 73 -94 100 -146 25 -48 27
-63 25 -142 -2 -101 -14 -133 -78 -224 -33 -49 -42 -69 -34 -77 8 -8 11 -7 8
2 -2 8 7 18 20 23 15 6 21 5 17 -1 -3 -6 1 -10 9 -10 9 0 25 -9 35 -19 11 -11
21 -17 24 -15 2 2 4 -3 4 -11 0 -8 -5 -11 -10 -8 -6 4 -3 -4 6 -18 13 -18 17
-46 17 -129 -1 -118 -10 -154 -64 -234 -40 -60 -81 -144 -91 -188 -6 -22 -4
-28 8 -28 26 0 324 -119 351 -141 13 -11 28 -28 31 -39 9 -28 20 -26 127 24
233 108 559 236 600 236 10 0 18 -14 22 -42 13 -82 76 -157 177 -210 113 -60
320 9 347 115 4 17 14 33 21 35 7 2 85 -69 175 -161 88 -90 187 -186 219 -212
55 -46 59 -47 85 -34 14 8 120 105 234 217 114 112 212 201 218 197 5 -3 15
-27 21 -51 14 -53 50 -82 145 -115 102 -36 203 -5 301 91 51 49 83 117 83 171
0 10 3 20 8 23 25 15 373 -101 641 -215 21 -8 28 -5 57 29 37 44 134 94 264
137 47 16 89 32 94 36 16 14 -14 116 -48 167 -54 78 -75 126 -87 201 -10 57
-15 71 -30 71 -14 0 -19 12 -24 66 -7 59 -5 67 16 90 12 13 27 24 32 24 6 0
19 7 29 16 17 16 16 19 -26 55 -75 67 -102 119 -127 254 -36 198 -39 174 32
238 l62 57 -69 31 c-65 29 -118 47 -294 99 -163 49 -242 61 -255 40 -9 -15
-22 -12 -22 6 0 27 47 36 155 31 65 -4 102 -2 102 4 0 6 23 20 51 33 42 18 55
31 73 67 14 30 28 45 44 47 13 2 22 7 20 10 -2 4 -11 23 -20 42 -9 19 -30 45
-47 58 -17 12 -31 29 -31 37 0 24 35 17 75 -15 46 -36 58 -32 20 7 -32 33 -55
82 -55 117 0 35 -16 40 -50 16 -41 -29 -38 -17 13 48 l42 56 5 -60 c4 -49 13
-71 53 -131 44 -66 53 -74 99 -88 29 -8 62 -15 75 -15 128 0 236 111 217 221
-3 19 -28 80 -56 137 -55 112 -65 120 -139 108 -22 -4 -63 -18 -91 -32 -27
-14 -55 -24 -63 -22 -12 3 104 168 149 214 10 9 36 42 59 73 22 31 59 79 82
106 57 68 65 85 65 145 0 64 -18 99 -72 141 -24 18 -45 36 -48 39 -3 4 -48 41
-100 82 -52 42 -115 93 -140 112 -25 20 -94 77 -155 126 -60 50 -153 125 -205
167 -105 86 -136 116 -229 220 -74 84 -125 113 -198 113 -44 0 -59 -6 -99 -36
l-47 -36 -81 8 -81 9 -11 81 c-14 97 -23 115 -69 143 -44 25 -108 27 -239 7
-50 -8 -172 -24 -270 -36 -178 -21 -180 -21 -195 -2 -28 35 -105 72 -147 71
-21 0 -67 -13 -101 -28z m136 -42 c25 -24 21 -31 -27 -47 -32 -11 -132 -5
-132 7 0 9 101 60 121 60 8 1 25 -9 38 -20z m788 -22 c14 -12 24 -37 28 -66 3
-25 8 -57 11 -70 5 -23 5 -23 -63 -16 -37 4 -81 13 -98 20 -16 7 -61 14 -99
14 -38 0 -158 13 -265 28 l-196 27 85 13 c47 7 137 19 200 28 63 9 165 24 225
34 120 20 139 19 172 -12z m-932 -92 c72 -9 204 -27 295 -40 305 -44 454 -64
570 -75 63 -6 140 -15 170 -20 30 -5 121 -19 201 -29 173 -24 189 -29 224 -76
33 -43 34 -30 -19 -475 -19 -162 -40 -351 -47 -420 -6 -69 -15 -129 -19 -133
-4 -5 -46 -3 -94 4 -72 10 -86 15 -86 30 0 20 100 619 124 744 22 110 20 144
-7 179 -22 27 -31 29 -222 57 -557 83 -1042 146 -1050 138 -9 -10 -24 -105
-34 -225 -6 -66 -36 -270 -67 -454 -70 -422 -67 -416 -215 -404 l-91 7 6 56
c4 31 18 151 31 266 13 116 34 289 45 385 12 96 27 233 35 303 15 139 23 158
80 183 37 16 17 16 170 -1z m-308 -95 c-7 -45 -14 -60 -26 -60 -20 0 -41 -19
-41 -37 0 -7 11 -13 25 -13 14 0 25 -4 25 -10 0 -5 -7 -10 -15 -10 -13 0 -14
-16 -10 -102 5 -104 -5 -101 -21 7 l-7 50 -9 -40 c-10 -42 -3 -155 12 -215 5
-20 6 -55 2 -79 l-7 -42 -63 57 c-35 31 -64 55 -66 53 -1 -2 -24 -36 -49 -75
-49 -72 -54 -92 -37 -125 14 -25 74 -26 90 -1 10 15 11 14 7 -8 -2 -14 -8 -34
-12 -44 -7 -17 -5 -18 16 -13 13 4 37 7 53 7 l28 0 -31 35 c-33 38 -41 56 -16
35 8 -7 29 -10 45 -8 l31 5 -6 -96 c-7 -102 -33 -337 -40 -358 -3 -9 -26 -13
-69 -13 -72 0 -69 -4 -81 105 -4 33 -15 112 -25 175 -11 63 -26 171 -35 240
-9 69 -25 177 -36 240 -40 226 -41 238 -23 277 10 19 29 39 43 45 27 11 217
52 306 67 28 5 50 9 51 10 0 0 -4 -26 -9 -59z m1729 -6 c51 -21 121 -89 145
-139 22 -50 57 -87 134 -144 63 -47 152 -119 195 -159 14 -13 45 -37 70 -54
49 -34 139 -105 155 -123 14 -15 156 -127 185 -146 14 -9 49 -40 78 -69 44
-44 52 -58 52 -89 0 -43 -5 -51 -83 -146 -117 -142 -220 -273 -227 -290 -4
-11 -34 -51 -67 -89 -107 -128 -165 -201 -178 -226 -7 -14 -23 -34 -35 -45
-13 -11 -51 -55 -86 -98 -84 -103 -202 -243 -237 -280 l-28 -30 -27 25 c-15
14 -44 31 -64 38 -29 9 -38 17 -38 33 0 45 12 65 41 71 22 4 33 15 46 46 12
27 29 45 52 56 89 42 179 175 206 303 27 130 12 259 -45 392 -38 88 -63 166
-58 181 6 16 51 -64 94 -167 32 -79 38 -103 42 -193 2 -56 7 -104 11 -106 3
-2 33 30 66 71 33 41 85 105 116 141 92 111 228 281 240 301 10 16 6 24 -31
57 -24 21 -70 59 -104 83 -34 25 -90 70 -126 101 -36 30 -83 69 -105 85 -22
16 -51 39 -65 52 -14 12 -43 34 -64 48 -88 59 -171 145 -141 145 3 0 49 -34
102 -75 54 -41 118 -89 142 -107 24 -18 84 -67 135 -109 50 -42 109 -87 131
-102 48 -31 175 -149 175 -162 0 -13 -159 -213 -247 -313 -38 -42 -90 -105
-116 -139 -26 -34 -61 -70 -77 -80 -33 -19 -43 -38 -35 -64 12 -36 13 -35 185
171 39 47 101 123 138 169 37 46 93 115 125 153 60 74 76 111 60 137 -12 19
-342 287 -508 413 -66 50 -139 109 -162 131 -43 41 -43 42 -43 112 0 122 -55
188 -176 208 -79 12 -84 15 -64 27 23 15 73 12 116 -6z m-1096 -89 c58 -8 157
-22 220 -30 63 -8 207 -28 320 -45 113 -17 243 -35 290 -41 82 -9 126 -27 136
-53 3 -7 -9 -91 -25 -187 -17 -96 -38 -214 -46 -264 -30 -173 -55 -310 -64
-340 -41 -135 46 481 100 711 7 29 9 59 6 67 -8 21 -50 31 -227 57 -80 12
-203 30 -275 41 -71 11 -182 26 -245 34 -63 8 -164 21 -225 30 -60 8 -127 17
-147 20 -46 6 -53 -4 -62 -100 -11 -112 -54 -407 -66 -445 -5 -19 -11 -48 -11
-65 -1 -16 -3 -23 -6 -13 -2 9 7 90 21 180 14 89 30 222 37 293 7 78 18 140
26 154 17 26 28 26 243 -4z m-1096 -117 c13 -51 7 -65 -41 -92 -55 -30 -194
-98 -246 -119 l-35 -15 94 -190 c51 -104 104 -218 118 -253 13 -35 47 -117 76
-182 51 -113 52 -118 35 -137 -17 -19 -17 -22 5 -72 46 -106 80 -236 80 -303
0 -33 1 -34 47 -37 l48 -3 22 -85 c23 -92 29 -175 13 -185 -5 -3 -10 -1 -10 5
0 23 -39 -27 -58 -75 l-20 -50 -72 150 c-39 83 -89 189 -111 237 -22 47 -46
99 -54 115 -8 15 -15 33 -15 38 0 9 -179 374 -376 767 -87 173 -98 214 -69
254 15 22 260 147 356 183 30 10 83 31 119 44 81 32 86 32 94 5z m-118 -209
c-55 -27 -102 -52 -105 -54 -2 -3 9 -33 26 -67 17 -35 43 -92 58 -128 15 -36
48 -108 73 -160 44 -94 92 -208 92 -219 -1 -7 -78 154 -130 269 -21 47 -63
137 -94 200 l-57 115 78 37 c75 36 127 56 148 56 6 1 -35 -22 -89 -49z m1452
-143 c22 -41 48 -91 57 -112 28 -68 159 -252 251 -354 76 -84 138 -158 166
-198 97 -140 94 -334 -6 -469 -17 -23 -37 -40 -44 -38 -7 3 -11 1 -8 -3 6 -10
-102 -82 -122 -82 -9 0 -10 5 -3 19 9 16 7 18 -17 14 -24 -3 -23 -2 8 12 19 9
43 14 53 11 11 -2 17 -2 14 1 -8 7 26 43 41 43 7 0 11 4 7 9 -3 6 2 14 11 19
9 5 15 11 14 13 -2 2 7 25 18 50 12 26 24 65 28 88 4 22 10 41 15 41 13 0 11
25 -7 83 -29 96 -57 146 -130 234 -43 52 -68 90 -62 94 16 10 -2 31 -20 24
-34 -13 -172 174 -292 397 l-36 67 -29 -47 c-38 -61 -175 -203 -188 -195 -6 3
-7 2 -4 -4 7 -11 -71 -89 -178 -178 -32 -27 -87 -76 -120 -107 -34 -32 -65
-55 -70 -50 -4 4 -6 0 -2 -9 3 -11 -4 -26 -20 -40 -13 -13 -37 -49 -52 -79
-15 -31 -37 -70 -49 -87 -14 -19 -20 -38 -15 -49 4 -11 3 -15 -5 -10 -7 4 -13
-6 -17 -27 -7 -36 23 -138 42 -144 7 -3 3 13 -8 36 -10 22 -19 47 -19 56 0 28
24 10 31 -23 3 -17 18 -54 33 -83 21 -38 25 -54 16 -63 -8 -8 -10 -7 -6 4 6
16 -9 48 -18 39 -3 -3 -1 -21 4 -40 l9 -34 -25 30 c-14 17 -38 55 -52 85 -23
48 -27 68 -27 150 0 82 4 103 26 150 49 104 158 231 264 308 65 47 305 282
349 342 56 76 140 178 147 179 3 1 24 -32 47 -73z m-1940 -111 c-55 -65 -67
-112 -27 -102 16 4 17 2 9 -14 -8 -13 -6 -28 5 -51 29 -61 85 -142 133 -192
l47 -49 -50 38 c-27 21 -69 59 -92 84 -24 25 -43 42 -43 36 0 -5 41 -54 90
-109 50 -54 88 -101 85 -105 -3 -3 -9 -1 -13 4 -4 6 -21 23 -38 38 -27 24 -31
25 -29 8 1 -11 18 -38 39 -61 21 -23 35 -48 32 -55 -2 -7 15 -34 39 -59 68
-70 79 -90 64 -115 -11 -16 -10 -29 3 -71 16 -49 16 -51 0 -38 -33 29 -46 33
-39 12 7 -18 6 -18 -7 -1 -7 9 -17 17 -21 17 -4 0 6 -15 21 -34 16 -19 61 -75
99 -126 94 -124 182 -227 230 -272 32 -30 37 -40 27 -50 -6 -6 -12 -19 -11
-28 0 -9 4 -6 9 8 11 27 21 28 38 2 7 -12 8 -20 2 -20 -5 0 -10 5 -10 11 0 5
-5 7 -12 3 -8 -5 -6 -11 6 -19 9 -7 14 -19 11 -27 -4 -10 1 -17 16 -21 16 -4
20 -11 16 -26 -3 -12 -2 -19 2 -17 4 3 13 1 20 -3 7 -5 -10 -12 -45 -19 -74
-15 -74 -15 -74 9 0 11 4 18 9 14 6 -3 8 4 6 15 -2 12 1 20 10 20 21 0 28 19
14 36 -6 8 -14 12 -17 9 -3 -2 1 -11 8 -20 7 -8 8 -15 3 -15 -5 0 -15 9 -23
19 -7 11 -17 18 -20 16 -4 -3 -5 8 -3 23 3 23 2 24 -6 7 -5 -11 -7 -39 -4 -62
3 -23 2 -62 -1 -88 l-7 -46 -491 493 c-270 271 -499 507 -509 523 -11 17 -19
45 -19 63 0 38 7 47 280 325 96 98 179 186 184 195 8 13 15 5 36 -43 16 -35
23 -64 18 -70z m1693 47 c-15 -28 -49 -55 -61 -47 -14 9 -4 23 34 46 38 23 39
23 27 1z m423 -27 c20 -8 36 -18 36 -21 0 -8 -30 -64 -34 -64 -5 0 -56 86 -56
94 0 10 15 7 54 -9z m989 -70 c-25 -31 -53 -46 -53 -29 0 18 44 64 61 64 18 0
18 -3 -8 -35z m-1173 -77 c91 -150 125 -196 229 -315 157 -181 164 -191 186
-267 39 -133 -17 -273 -139 -347 -47 -29 -177 -27 -231 4 -39 22 -86 89 -73
102 4 4 28 -9 54 -29 57 -44 77 -50 154 -44 74 5 122 40 163 119 26 48 28 62
25 125 -4 58 -11 83 -38 130 -18 33 -38 63 -45 69 -65 56 -252 294 -302 384
-20 36 -41 72 -47 80 -8 10 -35 -12 -126 -105 -63 -66 -179 -178 -256 -250
-154 -145 -200 -211 -211 -304 -7 -60 15 -126 60 -177 69 -78 153 -88 262 -30
38 20 71 35 73 32 2 -2 -4 -21 -14 -42 -16 -32 -29 -41 -79 -60 -73 -27 -105
-28 -176 -7 -143 43 -211 202 -160 374 19 65 144 197 387 406 32 29 100 97
149 153 50 55 90 101 91 101 0 0 29 -46 64 -102z m317 68 c28 -24 28 -25 8
-41 -25 -20 -76 -48 -79 -43 -23 28 -22 44 3 75 14 18 29 33 33 33 4 0 20 -11
35 -24z m-689 -11 c9 -19 8 -27 -4 -40 -26 -26 -64 -14 -64 19 0 47 49 63 68
21z m-1518 1 c0 -2 -7 -7 -16 -10 -8 -3 -12 -2 -9 4 6 10 25 14 25 6z m2844
-154 c4 -35 28 -119 57 -195 52 -140 89 -282 89 -345 0 -87 -43 -236 -82 -282
-25 -29 -93 -77 -127 -88 -95 -33 -96 9 -1 47 58 23 68 32 98 81 63 105 88
249 60 344 -14 48 -14 46 -14 -85 1 -125 -1 -138 -25 -189 -31 -65 -63 -97
-116 -115 -42 -14 -68 -8 -37 9 10 6 40 31 66 56 68 66 83 125 74 295 -6 115
-11 144 -47 254 l-40 124 12 89 c13 98 23 98 33 0z m-522 54 c20 -29 7 -53
-41 -79 -27 -15 -51 -27 -55 -27 -3 0 -12 14 -21 30 -12 23 -13 35 -5 51 22
41 101 57 122 25z m-931 -22 c11 -14 9 -20 -19 -45 -48 -43 -71 -18 -36 36 19
29 36 32 55 9z m411 -92 c10 -15 38 -54 63 -87 81 -107 115 -159 115 -177 0
-10 -4 -18 -9 -18 -13 0 -117 132 -158 201 l-37 61 -20 -28 c-43 -60 -235
-264 -248 -264 -25 0 31 79 146 203 49 53 95 105 103 117 19 26 25 25 45 -8z
m603 -32 l16 -31 -46 -20 -46 -20 -19 23 c-11 13 -19 25 -20 28 0 7 73 49 87
50 7 0 20 -14 28 -30z m865 -25 c-13 -14 -26 -23 -28 -20 -3 3 5 16 18 30 13
14 26 23 28 20 3 -3 -5 -16 -18 -30z m-1395 -198 c33 -38 68 -81 77 -95 19
-29 24 -67 9 -76 -9 -6 -168 163 -189 200 -11 19 -31 4 -173 -139 -37 -37 -69
-48 -69 -24 0 19 10 31 126 153 l109 114 25 -32 c14 -18 52 -63 85 -101z m550
103 c3 -5 1 -10 -4 -10 -6 0 -11 5 -11 10 0 6 2 10 4 10 3 0 8 -4 11 -10z
m385 -119 c8 -50 9 -75 1 -90 -6 -11 -15 -37 -21 -58 -7 -29 -8 -19 -4 47 7
93 7 88 -2 144 -4 26 -3 37 4 32 6 -3 15 -37 22 -75z m-1722 45 c4 -4 0 -13
-9 -20 -26 -18 -175 -4 -197 18 -16 17 -12 18 91 14 59 -3 110 -8 115 -12z
m1508 -53 c92 -12 124 -20 124 -30 0 -11 -10 -13 -42 -9 -24 3 -81 8 -128 12
-77 5 -99 14 -100 37 0 10 4 9 146 -10z m-485 -86 c49 -112 19 -229 -71 -274
-24 -13 -56 -23 -70 -23 -20 1 -15 6 28 26 29 14 65 42 80 62 39 52 38 143 -3
227 -16 33 -31 65 -33 70 -3 6 7 -1 21 -13 14 -13 36 -47 48 -75z m-657 56
c-3 -10 -17 -42 -31 -71 -65 -133 -29 -225 101 -267 36 -11 8 -16 -32 -6 -53
15 -119 79 -128 125 -7 42 2 98 23 141 35 70 82 124 67 78z m1189 -40 c45 -4
57 -9 57 -23 0 -15 -10 -17 -97 -12 -95 5 -113 11 -113 41 0 11 11 12 48 7 26
-3 73 -9 105 -13z m-1657 -13 c18 0 24 -5 24 -22 0 -40 -11 -45 -77 -40 -52 4
-63 7 -63 22 0 31 30 53 63 46 16 -3 40 -6 53 -6z m-166 -29 c0 -29 -14 -42
-37 -34 -7 3 -13 15 -13 28 0 21 10 29 43 34 4 0 7 -12 7 -28z m-104 -26 c7
-18 -14 -47 -27 -39 -5 3 -9 16 -9 30 0 27 27 34 36 9z m1962 -32 c17 -4 22
-12 22 -40 l0 -35 -52 6 c-125 16 -126 16 -131 44 -3 15 -3 31 0 36 5 8 113 1
161 -11z m-1808 -37 c0 -2 -7 -7 -16 -10 -8 -3 -12 -2 -9 4 6 10 25 14 25 6z
m2824 -56 c38 -72 58 -130 63 -177 5 -48 3 -54 -26 -83 -33 -33 -60 -34 -91
-3 -13 14 -11 15 22 9 33 -6 39 -4 54 20 20 30 13 68 -31 168 -29 65 -23 63
-118 23 -75 -32 -97 -52 -97 -93 0 -39 19 -60 61 -69 20 -5 28 -10 21 -17 -6
-6 -24 -6 -50 1 -44 12 -52 27 -52 96 0 69 16 85 108 116 46 15 86 30 90 33
12 12 33 1 46 -24z m-1146 -33 c-7 -8 -18 -14 -25 -14 -7 0 -13 6 -13 14 0 7
11 13 25 13 21 0 23 -2 13 -13z m-758 1 c0 -2 9 -44 19 -95 24 -115 71 -206
153 -297 l62 -69 -89 8 c-50 5 -184 8 -298 7 l-208 -2 14 20 c8 12 33 37 56
56 86 74 157 202 186 332 4 18 11 29 17 26 16 -10 0 -151 -22 -201 -21 -48
-69 -120 -105 -159 -14 -15 -25 -30 -25 -34 0 -9 297 -21 326 -14 20 5 18 10
-27 78 -56 83 -73 127 -83 209 -8 63 0 137 15 137 5 0 9 -1 9 -2z m-774 -133
c28 -64 30 -130 11 -265 l-13 -85 -78 -13 c-43 -7 -81 -11 -83 -8 -5 4 26 276
43 389 6 36 6 37 50 37 45 0 45 0 70 -55z m1647 -34 c4 -4 3 -39 -3 -77 -6
-38 -15 -111 -19 -162 -4 -50 -10 -94 -13 -98 -3 -3 -29 -2 -57 2 -58 8 -58
11 8 86 23 25 41 51 41 57 0 19 -36 30 -119 37 -44 4 -81 10 -81 14 0 4 -3 20
-6 36 -4 22 1 36 20 59 14 17 26 37 26 46 0 9 2 18 5 20 6 7 189 -12 198 -20z
m-3030 -45 c23 -14 60 -43 81 -65 33 -33 39 -47 40 -83 1 -65 -24 -98 -74 -98
-22 0 -40 4 -40 8 0 5 14 9 31 9 32 0 45 12 55 51 12 46 -24 90 -126 155 -25
16 -25 16 -79 -56 -71 -93 -80 -117 -58 -151 14 -20 26 -26 55 -26 27 0 33 -3
22 -10 -21 -13 -62 -12 -81 3 -21 16 -31 59 -23 106 5 29 23 59 66 110 33 39
67 71 75 71 8 0 33 -11 56 -24z m3973 -33 c9 -35 1 -37 -52 -14 -47 21 -50 35
-9 43 34 7 55 -3 61 -29z m-2223 -10 c-7 -2 -19 -2 -25 0 -7 3 -2 5 12 5 14 0
19 -2 13 -5z m1945 -67 c14 -30 27 -45 46 -50 34 -8 34 -40 1 -62 -15 -10 -25
-26 -25 -40 0 -34 -29 -43 -51 -16 -9 12 -21 22 -26 22 -6 0 -15 11 -21 25 -6
14 -18 25 -26 25 -23 0 -27 29 -6 50 11 11 24 20 29 20 5 0 18 16 30 35 11 19
23 35 25 35 3 0 14 -20 24 -44z m-858 -150 c0 -16 -5 -17 -37 -11 -21 4 -40 8
-42 10 -2 2 2 35 9 72 l13 68 29 -60 c15 -33 28 -68 28 -79z m-1393 17 c-3
-10 -5 -2 -5 17 0 19 2 27 5 18 2 -10 2 -26 0 -35z m2133 2 c33 -17 39 -42 13
-52 -17 -7 -53 29 -53 53 0 18 4 17 40 -1z m-3563 -37 l23 -24 -51 -10 c-27
-6 -52 -8 -54 -4 -2 4 4 23 13 42 19 39 30 38 69 -4z m2510 -38 c47 -5 87 -10
88 -12 2 -2 6 -66 10 -143 l7 -140 -33 49 c-34 51 -70 90 -85 93 -5 1 -26 4
-46 8 l-38 7 0 -154 c0 -149 1 -157 25 -192 l24 -36 -24 -36 c-27 -40 -30 -79
-16 -276 6 -93 7 -98 40 -132 19 -20 33 -38 30 -40 -2 -2 -82 -1 -178 2 l-175
7 34 39 c40 45 48 87 49 272 1 114 0 122 -24 154 l-26 35 26 18 c25 19 25 19
25 182 l0 162 -45 -8 c-61 -11 -80 -23 -110 -67 l-25 -37 0 134 0 134 191 -7
c105 -4 229 -11 276 -16z m-611 -16 c31 -14 66 -41 82 -61 24 -32 27 -47 30
-124 l4 -87 -79 -5 c-43 -2 -87 -8 -99 -12 -20 -6 -21 -3 -23 62 -1 37 -6 72
-10 76 -5 5 -29 9 -54 10 -68 3 -84 -18 -89 -113 l-3 -75 65 -32 c36 -18 95
-44 132 -59 151 -58 168 -85 168 -269 0 -104 -4 -138 -19 -170 -45 -100 -168
-160 -314 -153 -99 4 -147 26 -195 88 l-33 42 3 107 3 106 65 6 c36 3 80 9 99
14 l34 7 -6 -91 -7 -92 35 -15 c28 -11 44 -12 75 -4 22 6 41 14 44 18 2 4 6
52 8 106 l3 98 -29 23 c-17 13 -67 38 -112 55 -96 36 -160 76 -193 121 -23 30
-23 37 -19 154 5 139 16 166 90 230 52 44 113 63 211 64 65 1 88 -3 133 -25z
m958 -20 c205 -31 258 -52 317 -126 l39 -50 2 -126 c1 -70 0 -143 -1 -162 -3
-38 -30 -74 -75 -97 l-28 -15 28 -18 c68 -42 71 -50 78 -230 6 -148 8 -167 29
-197 44 -65 57 -52 82 78 9 46 20 103 25 126 17 74 13 109 -20 146 l-30 34 39
15 c45 18 43 14 87 218 33 153 39 234 18 250 -20 17 -18 44 2 36 16 -6 201
-54 304 -79 57 -13 56 -12 40 -42 -11 -21 -11 -43 3 -137 9 -62 19 -135 22
-163 14 -117 36 -186 72 -226 l35 -38 -28 -36 -28 -37 18 -111 c30 -194 46
-257 77 -306 16 -27 29 -53 29 -58 0 -6 -33 7 -73 28 -65 34 -177 84 -230 102
-17 6 -16 10 8 41 26 34 26 37 17 116 -6 45 -12 82 -14 83 -11 7 -108 40 -135
47 -38 9 -42 2 -46 -86 -2 -51 2 -65 27 -102 16 -23 27 -44 25 -46 -2 -2 -98
21 -214 49 -115 29 -246 59 -290 66 -44 7 -82 14 -84 15 -1 2 9 18 24 38 26
35 26 36 23 181 -3 164 -4 165 -83 186 -22 6 -47 12 -56 15 -14 4 -17 -15 -22
-142 -7 -156 -3 -178 45 -236 12 -15 20 -29 17 -32 -2 -2 -56 5 -119 15 -63
10 -134 18 -157 18 -46 1 -57 17 -27 42 37 31 44 64 44 219 0 159 -6 185 -49
224 -24 22 -27 36 -8 36 8 0 24 11 36 24 22 23 22 29 19 214 -3 179 -4 192
-25 221 -13 17 -23 33 -23 36 0 10 66 5 234 -21z m-1559 -101 c2 -48 15 -153
29 -233 22 -127 29 -148 51 -167 14 -13 33 -23 41 -23 21 0 17 -11 -18 -47
l-32 -33 12 -73 c41 -244 42 -248 84 -293 l39 -42 -28 -6 c-15 -3 -64 -10
-108 -16 -44 -6 -107 -17 -140 -24 -33 -8 -61 -13 -62 -12 -2 1 13 28 33 58
l35 57 -12 65 c-14 74 -16 75 -95 51 -27 -8 -59 -15 -71 -15 -13 0 -23 -3 -23
-6 0 -3 -5 -37 -11 -75 -10 -68 -10 -71 15 -104 14 -18 26 -36 26 -39 0 -7
-113 -39 -206 -60 -39 -9 -80 -19 -90 -23 -16 -6 -16 -4 3 23 11 16 28 43 37
61 18 37 68 346 59 371 -3 9 -14 26 -24 38 -19 20 -18 21 10 42 37 27 49 69
91 294 36 198 36 203 8 222 -12 9 -18 19 -14 23 8 8 348 82 354 77 2 -1 5 -42
7 -91z m1962 -13 c1 -11 -2 -18 -8 -15 -11 7 -12 35 -1 35 4 0 8 -9 9 -20z
m-2539 -73 c21 -20 22 -27 22 -184 0 -180 -6 -204 -59 -265 l-32 -36 29 -7
c69 -15 98 -94 87 -240 -9 -113 -33 -173 -94 -226 -56 -49 -106 -76 -254 -133
-61 -24 -156 -64 -209 -89 -54 -25 -98 -44 -98 -42 0 3 17 31 39 64 38 60 39
62 45 183 4 68 9 148 12 180 6 54 4 58 -31 96 l-36 41 37 47 c20 27 41 60 46
74 5 14 14 99 19 190 l9 165 -31 26 c-17 15 -27 29 -22 32 29 18 359 139 403
148 48 9 91 1 118 -24z m1514 -949 c42 -35 60 -59 72 -94 31 -91 12 -172 -49
-211 -38 -25 -60 -28 -99 -13 -38 14 -31 30 12 28 71 -2 112 36 113 108 2 62
-28 123 -78 161 -20 15 -60 50 -89 76 l-52 48 -44 -47 c-24 -26 -60 -57 -80
-70 -21 -13 -51 -47 -68 -76 -40 -69 -37 -125 8 -171 27 -26 38 -30 81 -29 53
1 65 -10 32 -28 -30 -16 -83 -12 -117 9 -43 26 -78 101 -71 151 7 57 46 127
81 149 17 10 63 52 101 92 l70 74 60 -55 c34 -30 86 -76 117 -102z m-139 10
c49 -33 97 -80 113 -110 l14 -28 -27 12 c-31 13 -88 53 -116 81 -19 19 -21 18
-93 -54 -76 -76 -102 -84 -69 -22 16 28 130 143 143 143 2 0 18 -10 35 -22z
m-352 -46 c11 -13 12 -22 4 -37 -12 -24 -58 -35 -49 -12 3 8 1 18 -5 21 -6 4
-4 14 7 26 22 23 24 24 43 2z m699 -12 c4 0 3 -11 -3 -25 -15 -31 -49 -30 -64
2 -9 18 -8 23 2 23 7 0 16 7 19 16 5 14 7 14 22 0 8 -9 19 -16 24 -16z m-740
-167 c63 -65 171 -176 239 -246 l126 -128 80 83 c44 46 145 152 224 236 137
146 157 161 195 146 31 -12 54 15 -362 -421 -74 -79 -138 -143 -142 -143 -4 0
-84 82 -176 182 -93 100 -195 207 -227 237 -53 51 -127 140 -127 154 0 5 23
13 46 16 5 0 61 -52 124 -116z m1180 51 c64 -32 90 -77 90 -152 0 -61 -15 -88
-68 -129 -37 -28 -52 -33 -95 -33 -92 1 -176 58 -192 130 -11 49 3 48 50 -3
71 -77 143 -96 206 -54 39 26 63 85 54 129 -4 15 -22 41 -41 58 -33 29 -49 34
-104 31 -28 -1 -58 14 -48 25 24 23 100 23 148 -2z m-1492 1 c11 -11 -22 -25
-59 -25 -42 0 -98 -34 -116 -70 -40 -80 37 -192 121 -176 42 8 120 59 147 97
28 40 39 36 29 -8 -11 -48 -81 -114 -140 -132 -108 -32 -210 50 -210 170 0 69
37 119 107 145 36 13 107 13 121 -1z m129 -52 c4 -10 -42 -49 -139 -120 -46
-34 -81 -30 -103 11 -18 32 -18 35 -1 61 22 34 46 43 61 22 16 -23 22 -22 96
13 66 30 80 32 86 13z m1183 -8 c56 -29 77 -30 104 -10 18 13 22 13 43 -7 28
-27 30 -67 3 -96 -29 -31 -62 -27 -112 13 -24 19 -60 46 -80 60 -36 24 -46 43
-31 58 10 11 21 8 73 -18z m-550 -150 c11 -13 4 -15 -56 -15 -38 0 -79 -3 -91
-6 -17 -5 -23 -2 -23 9 0 21 15 25 91 26 48 1 70 -3 79 -14z m-70 -95 c13 -8
13 -11 -2 -26 -14 -14 -20 -15 -33 -4 -12 10 -13 16 -4 26 13 16 19 17 39 4z" />
		<path d="M2110 4006 c-24 -72 -49 -135 -56 -139 -17 -10 -18 -37 -1 -37 6 0
23 -3 36 -7 22 -6 24 -4 18 23 -8 42 3 55 41 48 25 -5 32 -12 32 -30 0 -13 -4
-24 -10 -24 -5 0 -10 -7 -10 -15 0 -9 9 -15 24 -15 13 0 31 -3 40 -6 11 -4 16
0 16 14 0 11 -4 22 -9 24 -5 2 -13 66 -18 142 -8 139 -8 140 -34 147 -26 7
-27 5 -69 -125z m60 -5 c0 -65 -1 -69 -21 -64 -13 4 -19 12 -16 22 3 9 11 37
18 64 7 26 14 47 16 47 2 0 3 -31 3 -69z" />
		<path d="M2067 3694 c-31 -36 -57 -74 -57 -85 0 -27 45 -47 71 -31 25 16 24 1
-1 -31 -26 -33 -25 -37 6 -37 14 0 34 -5 45 -10 24 -13 25 3 3 55 -8 20 -13
39 -10 42 2 2 7 -5 11 -16 11 -36 85 -18 85 21 0 14 -83 158 -91 158 -3 0 -31
-30 -62 -66z" />
		<path d="M1670 4031 c-40 -7 -39 -1 -16 -126 18 -95 20 -155 6 -155 -5 0 -10
-9 -10 -20 0 -23 2 -24 72 -9 94 20 107 48 83 177 -13 66 -23 94 -43 115 -26
28 -32 29 -92 18z m68 -53 c16 -20 39 -163 30 -187 -4 -13 -16 -21 -31 -21
-22 0 -24 6 -35 89 -16 120 -16 131 7 131 10 0 23 -6 29 -12z" />
		<path d="M1059 3637 c-15 -12 -15 -20 7 -107 21 -79 32 -153 34 -217 0 -8 13
-4 34 10 32 21 38 47 10 47 -25 0 -15 27 15 40 33 13 55 6 47 -16 -3 -8 -3
-20 0 -28 5 -13 11 -13 40 1 38 19 42 28 17 42 -10 5 -52 61 -93 125 -41 64
-79 115 -85 115 -5 0 -17 -5 -26 -12z m71 -109 c0 -5 9 -21 20 -35 l20 -26
-21 -15 c-24 -17 -22 -19 -37 41 -16 63 -16 72 3 57 8 -7 15 -17 15 -22z" />
		<path d="M1216 3292 c-4 -6 -19 -75 -33 -152 -3 -17 2 -31 16 -44 18 -16 24
-17 50 -6 17 6 32 19 34 28 3 10 5 -4 6 -30 l1 -46 40 21 c43 24 51 37 21 37
-10 0 -24 7 -31 15 -10 13 -9 15 12 15 13 0 29 5 36 12 18 18 15 63 -5 80 -27
24 -141 79 -147 70z" />
		<path d="M509 3078 c-15 -10 -14 -15 7 -57 35 -72 101 -214 108 -234 6 -17 7
-17 30 0 l24 18 -24 26 -25 26 31 27 c34 28 50 27 50 -4 0 -30 20 -34 46 -9
l25 23 -28 14 c-34 18 -90 63 -162 131 -57 55 -58 55 -82 39z m99 -96 c23 -21
42 -41 42 -45 0 -4 -7 -19 -16 -32 l-16 -24 -34 65 c-19 35 -34 66 -34 69 0
13 19 2 58 -33z" />
		<path d="M930 3056 c0 -2 7 -7 16 -10 8 -3 12 -2 9 4 -6 10 -25 14 -25 6z" />
		<path d="M754 2770 c3 -8 8 -44 11 -80 4 -36 12 -71 17 -77 14 -17 47 -16 82
2 35 19 33 19 39 -6 5 -19 7 -20 36 -4 17 8 31 17 31 19 0 2 -16 14 -36 26
-37 21 -37 21 -15 36 11 8 21 25 21 38 0 39 -28 54 -112 58 -66 3 -77 1 -74
-12z" />
		<path d="M1050 2686 c0 -2 8 -10 18 -17 15 -13 16 -12 3 4 -13 16 -21 21 -21
13z" />
		<path d="M1431 2144 c0 -11 3 -14 6 -6 3 7 2 16 -1 19 -3 4 -6 -2 -5 -13z" />
		<path d="M1498 2063 c7 -3 16 -2 19 1 4 3 -2 6 -13 5 -11 0 -14 -3 -6 -6z" />
		<path d="M3468 2336 c-22 -16 -24 -62 -3 -70 21 -8 41 37 29 63 -8 17 -12 18
-26 7z" />
		<path d="M2883 1554 c-13 -14 -18 -26 -12 -30 6 -3 14 -17 19 -30 l9 -23 31
30 c34 35 36 39 14 39 -9 0 -18 9 -21 20 -7 25 -12 24 -40 -6z" />
		<path d="M3450 1716 l0 -144 67 -8 c95 -10 97 -7 101 112 3 140 -9 156 -130
178 l-38 7 0 -145z" />
		<path d="M4192 1600 c-37 -173 -52 -313 -34 -323 4 -3 28 -8 54 -12 l48 -7 -6
63 c-3 35 -12 100 -20 144 -8 44 -18 105 -23 135 l-7 55 -12 -55z" />
		<path d="M3351 1527 c-1 -10 -7 -20 -15 -23 -12 -5 -12 -10 2 -34 l17 -29 23
24 c25 28 27 35 9 35 -8 0 -19 10 -25 23 -9 18 -11 19 -11 4z" />
		<path d="M4031 1341 c-21 -6 -22 -8 -7 -20 9 -7 16 -22 16 -32 0 -10 5 -21 10
-24 6 -3 10 1 10 9 0 8 7 22 16 31 13 12 14 19 4 30 -13 16 -14 16 -49 6z" />
		<path d="M1701 1715 c-7 -49 -22 -133 -32 -185 -10 -52 -19 -110 -19 -127 0
-31 2 -33 38 -33 20 0 47 3 59 6 26 7 27 2 -11 274 l-22 155 -13 -90z" />
		<path d="M1540 1379 c-23 -9 -23 -11 -7 -20 9 -6 17 -20 18 -32 l0 -22 9 21
c5 12 18 29 30 37 18 13 19 15 5 21 -20 7 -24 7 -55 -5z" />
		<path d="M1069 1648 l-56 -10 -6 -136 c-4 -75 -3 -139 1 -143 4 -3 29 1 55 8
74 22 88 52 85 182 -2 60 -7 105 -13 106 -5 1 -35 -2 -66 -7z" />
		<path d="M1040 1196 l-45 -12 -7 -139 c-3 -77 -4 -142 -2 -145 12 -12 119 37
138 63 30 40 37 198 10 228 -19 21 -30 22 -94 5z" />
		<path d="M1840 4285 c-35 -19 -71 -41 -78 -49 -21 -21 13 -28 74 -16 27 6 61
12 75 13 29 3 79 32 79 46 0 14 -25 31 -56 36 -21 4 -47 -4 -94 -30z" />
		<path d="M4664 2795 c-8 -31 1 -55 20 -55 26 0 37 34 20 58 -20 29 -32 28 -40
-3z" />
		<path d="M698 1793 c6 -2 18 -2 25 0 6 3 1 5 -13 5 -14 0 -19 -2 -12 -5z" />
		<path d="M668 1773 c7 -3 16 -2 19 1 4 3 -2 6 -13 5 -11 0 -14 -3 -6 -6z" />
		<path d="M4638 1710 c-18 -16 -28 -30 -22 -30 5 0 23 14 39 30 37 39 25 39
-17 0z" />
	</g>
</svg>